<?xml version="1.0" encoding="UTF-8"?>
<svg xmlns="http://www.w3.org/2000/svg" width="289" height="91" viewBox="0 0 289 91" fill="none">
  <g clip-path="url(#clip0_47_4152)">
    <path d="M69.1638 88.4421H5.48968C2.74435 88.4421 0.5 86.1896 0.5 83.4232V59.3519C0.5 56.5854 2.74435 54.333 5.48968 54.333H69.1638C71.9091 54.333 74.1535 56.5854 74.1535 59.3519V83.4232C74.1535 86.1896 71.9091 88.4421 69.1638 88.4421Z" fill="white" stroke="#163253"></path>
    <path d="M63.6897 50.5423H10.142C7.45869 50.5423 5.27637 48.3522 5.27637 45.6481V28.5924C5.27637 25.8883 7.45869 23.6982 10.142 23.6982H63.6897C66.373 23.6982 68.5553 25.8883 68.5553 28.5924V45.6481C68.5553 48.3522 66.373 50.5423 63.6897 50.5423Z" fill="white" stroke="#163253"></path>
    <path d="M61.658 19.9699H12.2819C9.53658 19.9699 7.29224 17.7175 7.29224 14.951V7.01559C7.29224 4.24914 9.53658 1.99666 12.2819 1.99666H61.658C64.4034 1.99666 66.6477 4.24914 66.6477 7.01559V14.951C66.6477 17.7175 64.4034 19.9699 61.658 19.9699Z" fill="white" stroke="#163253"></path>
    <path d="M12.2819 3.21158C10.2039 3.21158 8.51358 4.91091 8.51358 7V14.9354C8.51358 17.0245 10.2039 18.7238 12.2819 18.7238H61.658C63.7361 18.7238 65.4419 17.0245 65.4419 14.9354V7C65.4419 4.91091 63.7516 3.21158 61.658 3.21158H12.2819ZM61.658 20.4699H12.2819C9.25794 20.4699 6.79224 17.9911 6.79224 14.951V7.01559C6.79224 3.9755 9.25794 1.49666 12.2819 1.49666H61.658C64.682 1.49666 67.1477 3.9755 67.1477 7.01559V14.951C67.1477 17.9911 64.682 20.4699 61.658 20.4699Z" fill="#163253"></path>
    <path d="M10.142 24.882C8.1105 24.882 6.45119 26.5501 6.45119 28.5924V45.6481C6.45119 47.6904 8.1105 49.3586 10.142 49.3586H63.6897C65.7211 49.3586 67.3805 47.6904 67.3805 45.6481V28.5924C67.3805 26.5501 65.7211 24.882 63.6897 24.882H10.142ZM63.6897 51.0423H10.142C7.18004 51.0423 4.77637 48.6258 4.77637 45.6481V28.5924C4.77637 25.6147 7.18004 23.1982 10.142 23.1982H63.6897C66.6516 23.1982 69.0553 25.6147 69.0553 28.5924V45.6481C69.0553 48.6258 66.6516 51.0423 63.6897 51.0423Z" fill="#163253"></path>
    <path d="M5.48968 55.5635C3.41167 55.5635 1.72134 57.2628 1.72134 59.3519V83.4232C1.72134 85.5123 3.41167 87.2116 5.48968 87.2116H69.1638C71.2418 87.2116 72.9321 85.5123 72.9321 83.4232V59.3519C72.9321 57.2628 71.2418 55.5635 69.1638 55.5635H5.48968ZM69.1638 88.9421H5.48968C2.4657 88.9421 0 86.4633 0 83.4232V59.3519C0 56.3118 2.4657 53.833 5.48968 53.833H69.1638C72.1878 53.833 74.6535 56.3118 74.6535 59.3519V83.4232C74.6535 86.4633 72.1878 88.9421 69.1638 88.9421Z" fill="#163253"></path>
    <path d="M12.7473 27.2673H17.1514C18.6401 27.2673 19.8342 28.4833 19.8342 29.9644V44.6192C19.8342 46.1158 18.6246 47.3163 17.1514 47.3163H12.7473C11.2585 47.3163 10.0645 46.1002 10.0645 44.6192V29.9644C10.0645 28.4677 11.274 27.2673 12.7473 27.2673Z" fill="#163253"></path>
    <path d="M39.2808 7.68597C41.0641 7.68597 42.5063 9.13586 42.5063 10.9287C42.5063 12.7216 41.0641 14.1715 39.2808 14.1715C37.4974 14.1715 36.0552 12.7216 36.0552 10.9287C36.0552 9.13586 37.4974 7.68597 39.2808 7.68597Z" fill="#163253"></path>
    <path d="M56.5405 7.68597C58.3239 7.68597 59.7661 9.13586 59.7661 10.9287C59.7661 12.7216 58.3239 14.1715 56.5405 14.1715C54.7571 14.1715 53.3149 12.7216 53.3149 10.9287C53.3149 9.13586 54.7571 7.68597 56.5405 7.68597Z" fill="#163253"></path>
    <path d="M97.279 67.1314C97.1239 67.1314 96.9844 67.1002 96.8293 67.0534C96.4881 66.9287 96.209 66.6793 96.0539 66.3519L93.2936 59.8975C93.0454 59.3051 93.247 58.6192 93.7588 58.245L95.2165 57.2004C95.2785 57.1537 95.3561 57.1069 95.4336 57.0757C96.1159 56.7639 96.9068 57.0757 97.217 57.7461L100.303 64.6526C100.536 65.1982 100.303 65.8062 99.7912 66.0557L97.8373 66.9911C97.6667 67.0846 97.4651 67.1158 97.2635 67.1158" fill="white"></path>
    <path d="M96.7207 75.784C96.6277 75.784 96.5347 75.784 96.4416 75.7528L94.6892 75.7216C94.5342 75.6748 94.0534 75.5189 93.8053 75.0044C93.6037 74.5991 93.6192 74.0846 93.8363 73.461L95.5887 66.8975C95.7748 66.1804 96.4881 65.7439 97.186 65.9465C97.2325 65.9465 97.279 65.9777 97.3411 65.9933L99.1399 66.4922C99.7292 66.6949 100.07 67.3185 99.9308 67.9109L97.9924 74.755C97.9303 75.0668 97.7287 75.363 97.4341 75.5657C97.217 75.706 96.9844 75.784 96.7363 75.784" fill="white"></path>
    <path d="M85.5398 75.5501C85.0746 75.5501 84.7024 75.2539 84.5163 74.7238L82.764 67.9109C82.5779 67.3029 82.8725 66.6169 83.4308 66.3519L83.5859 66.3051L85.1056 66.0245C85.1211 66.0245 85.1521 66.0089 85.1831 65.9933C85.85 65.7751 86.5633 66.1648 86.7649 66.8664L88.6413 73.3675C88.998 74.7706 88.4087 75.3007 87.866 75.4878L87.6799 75.5189H85.8345C85.7259 75.5501 85.6329 75.5657 85.5243 75.5657" fill="white"></path>
    <path d="M85.4622 66.8975C85.2916 66.8975 85.121 66.8664 84.9505 66.8196L83.4617 66.3207C82.7949 66.0401 82.4693 65.3697 82.6553 64.7305L85.1055 58.167C85.3692 57.4811 86.1445 57.1381 86.8424 57.3875C86.9044 57.4187 86.9664 57.4343 87.013 57.4655L88.5482 58.2918C89.122 58.588 89.3856 59.2739 89.153 59.882L86.8889 65.9154C86.6563 66.5234 86.0825 66.8975 85.4467 66.8975" fill="white"></path>
    <path d="M84.5008 89.176C83.7254 89.176 82.9965 88.8797 82.4383 88.3341C81.8645 87.7728 81.5543 87.0401 81.5388 86.245C81.5388 86.0735 81.5388 85.8864 81.5853 85.6993L83.0896 76.8285C83.3377 75.3942 84.5628 74.3653 86.005 74.3653L96.6897 74.225C98.0699 74.225 99.2485 75.176 99.5741 76.5011L101.73 85.3096C102.102 86.9154 101.109 88.5212 99.5121 88.8953C99.295 88.9421 99.0934 88.9733 98.8918 88.9733L84.5318 89.176H84.4853H84.5008Z" fill="white"></path>
    <path d="M86.005 76.0958C85.4002 76.0958 84.8885 76.5323 84.7954 77.1247L83.2912 85.9956C83.2912 86.0735 83.2757 86.1515 83.2757 86.2138C83.2757 86.5568 83.4152 86.8686 83.6479 87.1025C83.8805 87.3363 84.1906 87.461 84.5163 87.461H84.5318L98.8918 87.2584C98.9848 87.2584 99.0624 87.2584 99.1554 87.2272C99.8223 87.0713 100.241 86.4009 100.086 85.7305L97.9303 76.9376C97.7908 76.3764 97.2945 75.9711 96.7207 75.9711L86.0205 76.1114L86.005 76.0958ZM84.5008 89.176C83.7254 89.176 82.9965 88.8797 82.4383 88.3341C81.8645 87.7728 81.5543 87.0401 81.5388 86.245C81.5388 86.0735 81.5388 85.8864 81.5853 85.6993L83.0896 76.8285C83.3377 75.3942 84.5628 74.3653 86.005 74.3653L96.6897 74.225C98.0699 74.225 99.2485 75.176 99.5741 76.5011L101.73 85.3096C102.102 86.9154 101.109 88.5212 99.5121 88.8953C99.295 88.9421 99.0934 88.9733 98.8918 88.9733L84.5318 89.176H84.4853H84.5008Z" fill="#163253"></path>
    <path d="M83.8648 65.0579C83.8648 65.0579 83.8803 65.0891 83.9114 65.1047L85.3846 65.6036C85.5242 65.6503 85.6792 65.588 85.7413 65.4321L88.0364 59.1648L86.4546 58.2294C86.4081 58.2138 86.3616 58.2294 86.3461 58.2762L83.8648 65.0579ZM85.4931 66.9131C85.3226 66.9131 85.152 66.882 84.9814 66.8196L83.4616 66.3051C82.7793 66.0089 82.4537 65.3074 82.6553 64.637L85.152 57.8085C85.4156 57.0913 86.2065 56.7327 86.9043 56.9978C86.9664 57.029 87.0284 57.0445 87.0749 57.0757L88.6257 57.9488C89.1994 58.2606 89.4786 58.9777 89.246 59.6013L86.9509 65.8842C86.7182 66.5234 86.1289 66.9131 85.4931 66.9131Z" fill="#163253"></path>
    <path d="M95.9764 58.245L94.5031 59.2895C94.4721 59.3051 94.4566 59.3519 94.4721 59.3675L97.217 65.7906H97.31H97.341L99.0624 64.9644L96.0694 58.2606L95.9919 58.2294L95.9764 58.245ZM97.279 67.1158C97.1239 67.1158 96.9844 67.0846 96.8293 67.0378C96.4881 66.9131 96.209 66.6637 96.0539 66.3363L93.2936 59.8819C93.0454 59.2895 93.247 58.6036 93.7588 58.2294L95.2165 57.1848C95.2785 57.1381 95.3561 57.0913 95.4336 57.0601C96.1159 56.7483 96.9068 57.0601 97.217 57.7305L100.303 64.637C100.536 65.1826 100.303 65.7906 99.7912 66.0401L97.8373 66.9755C97.6667 67.069 97.4651 67.1002 97.2635 67.1002" fill="#163253"></path>
    <path d="M94.9685 74.4276H96.7519C96.7519 74.4432 96.5813 75.0824 96.5813 75.0824L96.7674 74.4432L96.8604 74.3652L98.8299 67.677L96.938 67.1626C96.8915 67.1626 96.8449 67.1626 96.8449 67.2093L95.0151 73.8196C94.86 74.2561 94.9065 74.3808 94.9065 74.3808C94.9065 74.3808 94.9065 74.3808 94.9685 74.412M96.7829 75.7528C96.6899 75.7528 96.5968 75.7528 96.5038 75.7216L94.6739 75.6904C94.5033 75.6436 94.0071 75.4877 93.7589 74.9733C93.5573 74.5679 93.5728 74.0534 93.79 73.4298L95.6043 66.8664C95.7904 66.1492 96.5503 65.7127 97.2637 65.9154C97.3102 65.9154 97.3722 65.9465 97.4187 65.9621L99.2951 66.461C99.9154 66.6637 100.257 67.2873 100.117 67.8797L98.1011 74.7238C98.039 75.0356 97.8219 75.3318 97.5273 75.5345C97.3102 75.6748 97.0465 75.7528 96.7984 75.7528" fill="#163253"></path>
    <path d="M83.8184 67.5679C83.8184 67.5835 83.8184 67.5991 83.8184 67.6303L85.6793 74.5523H85.8189H87.7263C87.7573 74.49 87.7728 74.3185 87.6953 73.9755L85.6793 67.3029C85.6793 67.2717 85.6173 67.2561 85.5863 67.2561L85.4157 67.3185L83.8339 67.5991L83.8184 67.5679ZM85.5708 75.8619C85.0745 75.8619 84.6558 75.5501 84.4697 75.02L82.5778 67.9733C82.3762 67.3497 82.6864 66.6481 83.3067 66.3519L83.4617 66.3051L85.1055 66.0089C85.1366 66.0089 85.1521 65.9933 85.1831 65.9777C85.9119 65.7595 86.6718 66.1492 86.9044 66.882L88.9359 73.5857C89.3081 75.0356 88.6878 75.5813 88.0985 75.784L87.8969 75.8151H85.9119C85.8034 75.8463 85.6793 75.8619 85.5708 75.8619Z" fill="#163253"></path>
    <path d="M82.2058 53.6147C78.6546 53.6147 75.7546 50.7149 75.7546 47.1292V8.23163C75.7546 4.66147 78.639 1.7461 82.2058 1.7461C85.7725 1.7461 88.6569 4.64588 88.6569 8.23163V15.9332C88.6569 16.4633 88.2382 16.8842 87.711 16.8842C87.1837 16.8842 86.765 16.4633 86.765 15.9332V8.23163C86.765 5.70601 84.718 3.64811 82.2058 3.64811C79.6936 3.64811 77.6466 5.70601 77.6466 8.23163V47.1448C77.6466 49.6704 79.6936 51.7283 82.2058 51.7283C84.718 51.7283 86.765 49.6704 86.765 47.1448V43.0134C86.765 42.4833 87.1837 42.0624 87.711 42.0624C88.2382 42.0624 88.6569 42.4833 88.6569 43.0134V47.1448C88.6569 50.7149 85.7725 53.6303 82.2058 53.6303" fill="#163253"></path>
    <path d="M82.2058 53.6147C78.6546 53.6147 75.7546 50.7149 75.7546 47.1292V8.23162C75.7546 4.66147 78.639 1.7461 82.2058 1.7461C85.7725 1.7461 88.6569 4.64588 88.6569 8.23162V15.9332C88.6569 16.4633 88.2382 16.8842 87.711 16.8842C87.1837 16.8842 86.765 16.4633 86.765 15.9332V8.23162C86.765 5.70601 84.718 3.64811 82.2058 3.64811C79.6936 3.64811 77.6466 5.70601 77.6466 8.23162V47.1448C77.6466 49.6704 79.6936 51.7283 82.2058 51.7283C84.718 51.7283 86.765 49.6704 86.765 47.1448V43.0134C86.765 42.4833 87.1837 42.0624 87.711 42.0624C88.2382 42.0624 88.6569 42.4833 88.6569 43.0134V47.1448C88.6569 50.7149 85.7725 53.6303 82.2058 53.6303" stroke="#163253" stroke-width="0.3"></path>
    <path d="M106.475 53.6147C105.948 53.6147 105.529 53.1938 105.529 52.6637V8.23163C105.529 5.70601 103.482 3.64811 100.97 3.64811C98.4577 3.64811 96.4107 5.70601 96.4107 8.23163V52.6637C96.4107 53.1938 95.992 53.6147 95.4648 53.6147C94.9375 53.6147 94.5188 53.1938 94.5188 52.6637V8.23163C94.5188 4.66147 97.4032 1.7461 100.97 1.7461C104.521 1.7461 107.406 4.64588 107.406 8.21603V52.6637C107.406 53.1938 106.987 53.6147 106.46 53.6147" fill="#163253"></path>
    <path d="M106.475 53.6147C105.948 53.6147 105.529 53.1938 105.529 52.6637V8.23162C105.529 5.70601 103.482 3.64811 100.97 3.64811C98.4577 3.64811 96.4107 5.70601 96.4107 8.23162V52.6637C96.4107 53.1938 95.992 53.6147 95.4648 53.6147C94.9375 53.6147 94.5188 53.1938 94.5188 52.6637V8.23162C94.5188 4.66147 97.4032 1.7461 100.97 1.7461C104.521 1.7461 107.406 4.64588 107.406 8.21603V52.6637C107.406 53.1938 106.987 53.6147 106.46 53.6147" stroke="#163253" stroke-width="0.3"></path>
    <path d="M87.5869 26.1915H76.7006C76.1733 26.1915 75.7546 25.7706 75.7546 25.2405C75.7546 24.7105 76.1733 24.2895 76.7006 24.2895H87.5869C88.1142 24.2895 88.5329 24.7105 88.5329 25.2405C88.5329 25.7706 88.1142 26.1915 87.5869 26.1915Z" fill="#163253" stroke="#163253" stroke-width="0.3"></path>
    <path d="M136.28 53.6147C132.729 53.6147 129.829 50.7149 129.829 47.1292V8.23163C129.829 4.66147 132.714 1.7461 136.28 1.7461C139.847 1.7461 142.732 4.64588 142.732 8.23163V15.9332C142.732 16.4633 142.313 16.8842 141.786 16.8842C141.258 16.8842 140.84 16.4633 140.84 15.9332V8.23163C140.84 5.70601 138.793 3.64811 136.28 3.64811C133.768 3.64811 131.721 5.70601 131.721 8.23163V47.1448C131.721 49.6704 133.768 51.7283 136.28 51.7283C138.793 51.7283 140.84 49.6704 140.84 47.1448V43.0134C140.84 42.4833 141.258 42.0624 141.786 42.0624C142.313 42.0624 142.732 42.4833 142.732 43.0134V47.1448C142.732 50.7149 139.847 53.6303 136.28 53.6303" fill="#163253"></path>
    <path d="M136.28 53.6147C132.729 53.6147 129.829 50.7149 129.829 47.1292V8.23162C129.829 4.66147 132.714 1.7461 136.28 1.7461C139.847 1.7461 142.732 4.64588 142.732 8.23162V15.9332C142.732 16.4633 142.313 16.8842 141.786 16.8842C141.258 16.8842 140.84 16.4633 140.84 15.9332V8.23162C140.84 5.70601 138.793 3.64811 136.28 3.64811C133.768 3.64811 131.721 5.70601 131.721 8.23162V47.1448C131.721 49.6704 133.768 51.7283 136.28 51.7283C138.793 51.7283 140.84 49.6704 140.84 47.1448V43.0134C140.84 42.4833 141.258 42.0624 141.786 42.0624C142.313 42.0624 142.732 42.4833 142.732 43.0134V47.1448C142.732 50.7149 139.847 53.6303 136.28 53.6303" stroke="#163253" stroke-width="0.3"></path>
    <path d="M141.677 26.1915H130.791C130.264 26.1915 129.845 25.7706 129.845 25.2405C129.845 24.7105 130.264 24.2895 130.791 24.2895H141.677C142.205 24.2895 142.623 24.7105 142.623 25.2405C142.623 25.7706 142.205 26.1915 141.677 26.1915Z" fill="#163253" stroke="#163253" stroke-width="0.3"></path>
    <path d="M106.459 26.1915H95.5732C95.0459 26.1915 94.6272 25.7706 94.6272 25.2405C94.6272 24.7105 95.0459 24.2895 95.5732 24.2895H106.459C106.987 24.2895 107.405 24.7105 107.405 25.2405C107.405 25.7706 106.987 26.1915 106.459 26.1915Z" fill="#163253" stroke="#163253" stroke-width="0.3"></path>
    <path d="M118.68 53.6615C116.524 53.6615 114.818 52.9443 113.578 51.5412C111.918 49.6548 111.267 46.5367 111.732 42.7795C111.794 42.265 112.275 41.8909 112.787 41.9532C113.298 42.0156 113.671 42.4989 113.609 43.0134C113.221 46.1626 113.717 48.8129 115.004 50.2784C115.857 51.2606 117.098 51.7439 118.68 51.7439C120.261 51.7439 121.548 51.0579 122.479 49.7171C123.782 47.8463 124.154 44.8218 123.363 42.6548C122.138 39.3341 117.656 27.2984 114.756 19.5345L112.352 13.0646C111.608 11.1626 110.724 6.79733 112.709 3.92873C113.888 2.21381 115.842 1.38753 118.4 1.41871C125.239 1.54343 125.27 7.35857 125.286 10.1492C125.286 10.7261 125.286 11.2249 125.332 11.5679C125.394 12.0824 125.022 12.5657 124.51 12.6281C123.999 12.6904 123.518 12.3163 123.456 11.8018C123.394 11.3341 123.394 10.7884 123.394 10.1492C123.378 6.45434 122.991 3.39866 118.369 3.30512C116.431 3.25835 115.066 3.83519 114.26 4.98886C112.849 7.03118 113.391 10.5234 114.12 12.363L116.539 18.833C119.439 26.5969 123.921 38.6325 125.146 41.9532C126.17 44.7283 125.704 48.3452 124.045 50.7461C122.758 52.6013 120.913 53.5835 118.695 53.5835" fill="#163253"></path>
    <path d="M118.68 53.6615C116.524 53.6615 114.818 52.9443 113.578 51.5412C111.918 49.6548 111.267 46.5367 111.732 42.7795C111.794 42.265 112.275 41.8909 112.787 41.9532C113.298 42.0156 113.671 42.4989 113.609 43.0134C113.221 46.1626 113.717 48.8129 115.004 50.2784C115.857 51.2606 117.098 51.7439 118.68 51.7439C120.261 51.7439 121.548 51.0579 122.479 49.7171C123.782 47.8463 124.154 44.8218 123.363 42.6548C122.138 39.3341 117.656 27.2984 114.756 19.5345L112.352 13.0646C111.608 11.1626 110.724 6.79733 112.709 3.92873C113.888 2.21381 115.842 1.38753 118.4 1.41871C125.239 1.54343 125.27 7.35857 125.286 10.1492C125.286 10.7261 125.286 11.2249 125.332 11.5679C125.394 12.0824 125.022 12.5657 124.51 12.6281C123.999 12.6904 123.518 12.3163 123.456 11.8018C123.394 11.3341 123.394 10.7884 123.394 10.1492C123.378 6.45434 122.991 3.39866 118.369 3.30512C116.431 3.25835 115.066 3.83519 114.26 4.98886C112.849 7.03118 113.391 10.5234 114.12 12.363L116.539 18.833C119.439 26.5969 123.921 38.6325 125.146 41.9532C126.17 44.7283 125.704 48.3452 124.045 50.7461C122.758 52.6013 120.913 53.5835 118.695 53.5835" stroke="#163253" stroke-width="0.3"></path>
    <path d="M156.921 0.701559V90.2984V0.701559Z" fill="#163253"></path>
    <path d="M156.921 0.701559V90.2984" stroke="#163253" stroke-width="2" stroke-miterlimit="4.4" stroke-linecap="round"></path>
    <path d="M171.514 27.5622V14.3261H179.33V15.8851H172.956V19.9386H178.927V21.4976H172.956V26.0032H179.593V27.5622H171.529H171.514Z" fill="#163253"></path>
    <path d="M183.548 27.5635L180.57 17.9755H181.966L183.656 23.7283C183.842 24.3831 184.013 25.0223 184.168 25.6615C184.277 25.1626 184.447 24.5546 184.649 23.8374L186.401 17.9911H187.766L184.788 27.5791H183.548V27.5635Z" fill="#163253"></path>
    <path d="M194.264 24.4766L195.628 24.6793C195.396 25.7082 194.992 26.4722 194.388 27.0022C193.798 27.5167 193.054 27.7817 192.17 27.7817C191.286 27.7817 190.17 27.3608 189.472 26.5189C188.789 25.6771 188.448 24.4454 188.448 22.8552C188.448 21.265 188.789 19.9399 189.487 19.0668C190.185 18.1938 191.054 17.7572 192.108 17.7572C193.163 17.7572 193.969 18.1782 194.636 19.0356C195.318 19.8931 195.644 21.1247 195.644 22.7461V23.1826H189.797C189.844 24.2584 190.108 25.069 190.542 25.6147C190.991 26.1604 191.519 26.441 192.155 26.441C193.147 26.441 193.845 25.7862 194.233 24.4766H194.264ZM189.906 21.8419H194.279C194.217 21.0156 194.046 20.392 193.752 19.9866C193.333 19.3942 192.79 19.098 192.124 19.098C191.457 19.098 191.023 19.3474 190.604 19.8463C190.185 20.3452 189.952 21.0156 189.906 21.8575V21.8419Z" fill="#163253"></path>
    <path d="M197.303 27.5635V17.9755H198.497V19.4254C198.807 18.755 199.086 18.3029 199.335 18.0846C199.583 17.8664 199.877 17.7572 200.188 17.7572C200.498 17.7572 201.087 17.9287 201.537 18.2873L201.087 19.7996C200.761 19.5657 200.436 19.441 200.125 19.441C199.815 19.441 199.583 19.5345 199.35 19.7372C199.117 19.9399 198.947 20.2205 198.854 20.5635C198.683 21.1871 198.606 21.8419 198.606 22.5434V27.5635H197.288H197.303Z" fill="#163253"></path>
    <path d="M202.281 31.2584L202.141 29.7305C202.436 29.8241 202.684 29.8708 202.901 29.8708C203.118 29.8708 203.413 29.8085 203.599 29.6993C203.785 29.5902 203.94 29.4031 204.049 29.1693C204.095 29.0913 204.266 28.5612 204.576 27.5791L201.599 17.9755H203.025L204.654 23.5256C204.855 24.2116 205.041 24.9599 205.227 25.7394C205.382 24.9911 205.553 24.2584 205.77 23.5568L207.445 17.9755H208.779L205.817 27.735C205.429 28.9978 205.119 29.8396 204.902 30.2762C204.685 30.7127 204.421 31.0089 204.142 31.196C203.863 31.3831 203.537 31.4766 203.18 31.4766C202.824 31.4766 202.638 31.4143 202.327 31.2739L202.281 31.2584Z" fill="#163253"></path>
    <path d="M214.951 27.5635V26.3474C214.718 26.8151 214.408 27.1581 214.02 27.4076C213.632 27.657 213.229 27.7661 212.795 27.7661C211.88 27.7661 211.074 27.3296 210.407 26.4566C209.74 25.5835 209.399 24.3519 209.399 22.7617C209.399 21.1715 209.554 20.7506 209.849 19.9866C210.143 19.2227 210.546 18.6615 211.043 18.3029C211.539 17.9287 212.097 17.7572 212.702 17.7572C213.307 17.7572 213.539 17.8664 213.912 18.1002C214.284 18.3341 214.594 18.6615 214.842 19.0668V14.3118H216.176V27.5479H214.935L214.951 27.5635ZM210.748 22.7773C210.748 24.0245 210.965 24.9443 211.384 25.5368C211.818 26.1448 212.314 26.441 212.888 26.441C213.462 26.441 213.943 26.1448 214.361 25.5679C214.78 24.9911 214.982 24.118 214.982 22.9488C214.982 21.7795 214.78 20.6258 214.361 20.0022C213.943 19.3786 213.431 19.0824 212.795 19.0824C212.159 19.0824 211.756 19.3786 211.353 19.971C210.95 20.5635 210.748 21.4989 210.748 22.7617V22.7773Z" fill="#163253"></path>
    <path d="M223.371 26.3786C222.922 26.8463 222.472 27.1893 221.991 27.4232C221.51 27.657 221.014 27.7817 220.502 27.7817C219.68 27.7817 219.045 27.5323 218.548 27.0334C218.068 26.5345 217.82 25.8797 217.82 25.0379C217.82 24.196 217.928 23.9933 218.161 23.5724C218.393 23.1514 218.704 22.8085 219.091 22.5746C219.479 22.3408 220.084 22.1537 220.89 22.0445C221.976 21.8886 222.766 21.7016 223.263 21.4677V21.0468C223.263 20.392 223.154 19.9243 222.922 19.6592C222.596 19.2695 222.084 19.0824 221.402 19.0824C220.719 19.0824 220.316 19.2071 220.022 19.4722C219.727 19.7372 219.494 20.2049 219.355 20.922L218.052 20.7038C218.238 19.6748 218.61 18.9265 219.184 18.4588C219.758 17.9911 220.564 17.7572 221.619 17.7572C222.673 17.7572 223.077 17.9131 223.557 18.2249C224.023 18.5368 224.317 18.9265 224.441 19.3786C224.565 19.8307 224.627 20.5011 224.627 21.3898V23.5568C224.627 25.069 224.658 26.0356 224.72 26.4254C224.782 26.8151 224.891 27.2049 225.062 27.5791H223.681C223.542 27.2517 223.449 26.8463 223.418 26.3942L223.371 26.3786ZM223.263 22.7461C222.782 22.98 222.053 23.1982 221.092 23.3541C220.533 23.4477 220.146 23.5568 219.929 23.6815C219.712 23.8062 219.541 23.9777 219.417 24.2116C219.293 24.4298 219.231 24.6949 219.231 24.9911C219.231 25.4432 219.37 25.8174 219.649 26.0824C219.929 26.363 220.316 26.4878 220.813 26.4878C221.309 26.4878 221.712 26.363 222.1 26.1136C222.487 25.8641 222.782 25.5367 222.968 25.1314C223.154 24.7261 223.263 24.118 223.263 23.3229V22.7305V22.7461Z" fill="#163253"></path>
    <path d="M226.612 31.2584L226.473 29.7305C226.767 29.8241 227.015 29.8708 227.233 29.8708C227.45 29.8708 227.744 29.8085 227.93 29.6993C228.117 29.5902 228.272 29.4031 228.38 29.1693C228.427 29.0913 228.597 28.5612 228.907 27.5791L225.93 17.9755H227.357L228.985 23.5256C229.187 24.2116 229.373 24.9599 229.559 25.7394C229.714 24.9911 229.884 24.2584 230.101 23.5568L231.776 17.9755H233.11L230.148 27.735C229.76 28.9978 229.45 29.8396 229.233 30.2762C229.016 30.7127 228.752 31.0089 228.473 31.196C228.194 31.3831 227.868 31.4766 227.512 31.4766C227.155 31.4766 226.969 31.4143 226.659 31.2739L226.612 31.2584Z" fill="#163253"></path>
    <path d="M236.584 27.5635L240.755 14.3274H242.291L246.71 27.5635H245.082L243.826 23.5568H239.282L238.103 27.5635H236.599H236.584ZM239.685 22.1225H243.361L242.244 18.4588C241.903 17.3363 241.639 16.4165 241.484 15.7149C241.345 16.5568 241.143 17.4143 240.895 18.2405L239.701 22.1225H239.685Z" fill="#163253"></path>
    <path d="M252.758 24.0557L254.061 24.2584C253.906 25.3964 253.534 26.2695 252.929 26.8775C252.324 27.4855 251.611 27.7817 250.758 27.7817C249.905 27.7817 248.897 27.3608 248.23 26.5189C247.563 25.6771 247.238 24.4143 247.238 22.7617C247.238 21.1091 247.579 19.8463 248.246 19.0045C248.912 18.1782 249.765 17.7572 250.82 17.7572C251.874 17.7572 252.309 18.0067 252.867 18.5212C253.425 19.02 253.782 19.784 253.937 20.7973L252.65 21.0312C252.526 20.3764 252.309 19.8931 251.998 19.5813C251.688 19.2539 251.316 19.098 250.882 19.098C250.231 19.098 249.688 19.3942 249.254 19.971C248.819 20.5479 248.618 21.4677 248.618 22.7461C248.618 24.0245 248.819 24.9911 249.238 25.5835C249.641 26.1604 250.168 26.4566 250.82 26.4566C251.471 26.4566 251.75 26.2695 252.107 25.8797C252.464 25.49 252.696 24.882 252.789 24.0713L252.758 24.0557Z" fill="#163253"></path>
    <path d="M258.139 26.1136L258.325 27.5479C257.953 27.6414 257.628 27.6882 257.333 27.6882C256.868 27.6882 256.495 27.5947 256.216 27.4076C255.937 27.2205 255.736 26.971 255.643 26.6592C255.534 26.3474 255.487 25.7082 255.487 24.7572V19.2383H254.51V17.9755H255.487V15.6058L256.806 14.6236V17.9755H258.139V19.2383H256.806V24.8508C256.806 25.3653 256.852 25.7082 256.93 25.8486C257.038 26.0668 257.255 26.1759 257.566 26.1759C257.876 26.1759 257.907 26.1604 258.155 26.1136H258.139Z" fill="#163253"></path>
    <path d="M259.38 16.1982V14.3274H260.698V16.1982H259.38ZM259.38 27.5635V17.9755H260.698V27.5635H259.38Z" fill="#163253"></path>
    <path d="M264.932 27.5635L261.954 17.9755H263.35L265.04 23.7283C265.226 24.3831 265.397 25.0223 265.552 25.6615C265.66 25.1626 265.831 24.5546 266.033 23.8374L267.785 17.9911H269.15L266.172 27.5791H264.932V27.5635Z" fill="#163253"></path>
    <path d="M270.282 16.1982V14.3274H271.6V16.1982H270.282ZM270.282 27.5635V17.9755H271.6V27.5635H270.282Z" fill="#163253"></path>
    <path d="M276.578 26.1136L276.764 27.5479C276.392 27.6414 276.066 27.6882 275.771 27.6882C275.306 27.6882 274.934 27.5947 274.655 27.4076C274.376 27.2205 274.174 26.971 274.081 26.6592C273.972 26.3474 273.926 25.7082 273.926 24.7572V19.2383H272.949V17.9755H273.926V15.6058L275.244 14.6236V17.9755H276.578V19.2383H275.244V24.8508C275.244 25.3653 275.291 25.7082 275.368 25.8486C275.477 26.0668 275.694 26.1759 276.004 26.1759C276.314 26.1759 276.345 26.1604 276.593 26.1136H276.578Z" fill="#163253"></path>
    <path d="M277.787 31.2584L277.648 29.7305C277.942 29.8241 278.191 29.8708 278.408 29.8708C278.625 29.8708 278.919 29.8085 279.105 29.6993C279.292 29.5902 279.447 29.4031 279.555 29.1693C279.602 29.0913 279.772 28.5612 280.082 27.5791L277.105 17.9755H278.532L280.16 23.5256C280.362 24.2116 280.548 24.9599 280.734 25.7394C280.889 24.9911 281.059 24.2584 281.277 23.5568L282.951 17.9755H284.285L281.323 27.735C280.935 28.9978 280.625 29.8396 280.408 30.2762C280.191 30.7127 279.927 31.0089 279.648 31.196C279.369 31.3831 279.043 31.4766 278.687 31.4766C278.33 31.4766 278.144 31.4143 277.834 31.2739L277.787 31.2584Z" fill="#163253"></path>
    <path d="M171.002 45.5078L172.351 45.3675C172.429 46.1002 172.584 46.6615 172.847 47.0668C173.096 47.4722 173.468 47.7996 173.933 48.049C174.414 48.2984 174.941 48.4232 175.53 48.4232C176.383 48.4232 177.035 48.2205 177.515 47.7996C177.996 47.3786 178.213 46.833 178.213 46.1782C178.213 45.5234 178.12 45.4454 177.949 45.1492C177.779 44.853 177.515 44.6192 177.174 44.4321C176.833 44.245 176.089 43.98 174.941 43.637C173.918 43.3408 173.204 43.029 172.77 42.7171C172.336 42.4053 172.01 42.0156 171.762 41.5479C171.529 41.0802 171.405 40.5345 171.405 39.9421C171.405 38.8664 171.746 37.9933 172.444 37.3073C173.127 36.6214 174.057 36.294 175.236 36.294C176.414 36.294 176.74 36.4499 177.345 36.7773C177.949 37.0891 178.415 37.5568 178.74 38.1492C179.066 38.7416 179.252 39.4432 179.268 40.2539L177.887 40.3786C177.81 39.5212 177.562 38.882 177.112 38.461C176.678 38.0401 176.058 37.8374 175.251 37.8374C174.445 37.8374 173.824 38.0245 173.406 38.3831C172.987 38.7416 172.77 39.2249 172.77 39.8018C172.77 40.3786 172.925 40.7528 173.235 41.049C173.545 41.3452 174.243 41.6414 175.344 41.9376C176.414 42.2339 177.159 42.4989 177.593 42.7016C178.244 43.0445 178.756 43.4811 179.082 44.0423C179.423 44.588 179.593 45.2428 179.593 46.0067C179.593 46.7706 179.423 47.4566 179.066 48.0802C178.709 48.7038 178.229 49.1715 177.624 49.4989C177.019 49.8263 176.29 49.9822 175.422 49.9822C174.088 49.9822 173.018 49.5768 172.227 48.7661C171.436 47.9555 171.018 46.8641 170.987 45.4922L171.002 45.5078Z" fill="#163253"></path>
    <path d="M186.494 46.2561L187.797 46.4588C187.642 47.5969 187.269 48.4699 186.665 49.0779C186.06 49.686 185.347 49.9822 184.494 49.9822C183.641 49.9822 182.633 49.5612 181.966 48.7194C181.299 47.8775 180.973 46.6147 180.973 44.9621C180.973 43.3096 181.315 42.0468 181.981 41.2049C182.648 40.3786 183.501 39.9577 184.556 39.9577C185.61 39.9577 186.044 40.2071 186.603 40.7216C187.161 41.2205 187.518 41.9844 187.673 42.9978L186.386 43.2316C186.261 42.5768 186.044 42.0935 185.734 41.7817C185.424 41.4543 185.052 41.2984 184.618 41.2984C183.966 41.2984 183.424 41.5947 182.989 42.1715C182.555 42.7483 182.354 43.6681 182.354 44.9465C182.354 46.2249 182.555 47.1915 182.974 47.784C183.377 48.3608 183.904 48.657 184.556 48.657C185.207 48.657 185.486 48.4699 185.843 48.0802C186.199 47.6904 186.432 47.0824 186.525 46.2717L186.494 46.2561Z" fill="#163253"></path>
    <path d="M188.913 38.3987V36.5278H190.231V38.3987H188.913ZM188.913 49.7639V40.1759H190.231V49.7639H188.913Z" fill="#163253"></path>
    <path d="M197.613 46.6771L198.978 46.8797C198.745 47.9087 198.342 48.6726 197.737 49.2027C197.148 49.7171 196.404 49.9822 195.52 49.9822C194.636 49.9822 193.519 49.5612 192.821 48.7194C192.139 47.8775 191.798 46.6459 191.798 45.0557C191.798 43.4655 192.139 42.1403 192.837 41.2673C193.535 40.3942 194.403 39.9577 195.458 39.9577C196.512 39.9577 197.319 40.3786 197.985 41.2361C198.668 42.0935 198.993 43.3252 198.993 44.9465V45.3831H193.147C193.194 46.4588 193.457 47.2695 193.891 47.8151C194.341 48.3608 194.868 48.6414 195.504 48.6414C196.497 48.6414 197.194 47.9866 197.582 46.6771H197.613ZM193.256 44.0423H197.629C197.567 43.216 197.396 42.5924 197.101 42.1871C196.683 41.5947 196.14 41.2984 195.473 41.2984C194.806 41.2984 194.372 41.5479 193.953 42.0468C193.535 42.5457 193.302 43.216 193.256 44.0579V44.0423Z" fill="#163253"></path>
    <path d="M200.653 49.7639V40.1759H201.847V41.5323C202.141 41.0022 202.482 40.6125 202.901 40.3474C203.32 40.0824 203.801 39.9577 204.328 39.9577C204.855 39.9577 205.134 40.0356 205.491 40.2071C205.848 40.3786 206.127 40.5969 206.359 40.8619C206.576 41.1269 206.747 41.4855 206.856 41.9065C206.964 42.3274 207.011 42.9978 207.011 43.8708V49.7639H205.693V43.9176C205.693 43.216 205.631 42.7016 205.506 42.3742C205.382 42.0468 205.196 41.7973 204.948 41.6258C204.7 41.4543 204.405 41.3608 204.064 41.3608C203.428 41.3608 202.917 41.5947 202.545 42.0779C202.172 42.5612 201.971 43.3719 201.971 44.5256V49.7639H200.653Z" fill="#163253"></path>
    <path d="M214.175 46.2561L215.478 46.4588C215.323 47.5969 214.951 48.4699 214.346 49.0779C213.741 49.686 213.028 49.9822 212.175 49.9822C211.322 49.9822 210.314 49.5612 209.647 48.7194C208.98 47.8775 208.655 46.6147 208.655 44.9621C208.655 43.3096 208.996 42.0468 209.663 41.2049C210.329 40.3786 211.182 39.9577 212.237 39.9577C213.291 39.9577 213.726 40.2071 214.284 40.7216C214.842 41.2205 215.199 41.9844 215.354 42.9978L214.067 43.2316C213.943 42.5768 213.726 42.0935 213.415 41.7817C213.105 41.4543 212.733 41.2984 212.299 41.2984C211.648 41.2984 211.105 41.5947 210.671 42.1715C210.236 42.7483 210.035 43.6681 210.035 44.9465C210.035 46.2249 210.236 47.1915 210.655 47.784C211.058 48.3608 211.585 48.657 212.237 48.657C212.888 48.657 213.167 48.4699 213.524 48.0802C213.881 47.6904 214.113 47.0824 214.206 46.2717L214.175 46.2561Z" fill="#163253"></path>
    <path d="M221.944 46.6771L223.309 46.8797C223.077 47.9087 222.673 48.6726 222.069 49.2027C221.479 49.7171 220.735 49.9822 219.851 49.9822C218.967 49.9822 217.851 49.5612 217.153 48.7194C216.47 47.8775 216.129 46.6459 216.129 45.0557C216.129 43.4655 216.47 42.1403 217.168 41.2673C217.866 40.3942 218.734 39.9577 219.789 39.9577C220.843 39.9577 221.65 40.3786 222.317 41.2361C222.999 42.0935 223.325 43.3252 223.325 44.9465V45.3831H217.478C217.525 46.4588 217.788 47.2695 218.223 47.8151C218.672 48.3608 219.2 48.6414 219.835 48.6414C220.828 48.6414 221.526 47.9866 221.913 46.6771H221.944ZM217.587 44.0423H221.96C221.898 43.216 221.727 42.5924 221.433 42.1871C221.014 41.5947 220.471 41.2984 219.804 41.2984C219.138 41.2984 218.703 41.5479 218.285 42.0468C217.866 42.5457 217.633 43.216 217.587 44.0579V44.0423Z" fill="#163253"></path>
    <path d="M235.39 48.1893C234.521 49.3742 233.482 49.9822 232.304 49.9822C231.125 49.9822 230.396 49.5768 229.776 48.7661C229.171 47.9555 228.861 47.0668 228.861 46.0846C228.861 44.4477 229.714 43.1381 231.435 42.1403C230.954 41.4699 230.629 40.9243 230.474 40.5033C230.303 40.0668 230.225 39.6459 230.225 39.2405C230.225 38.3987 230.489 37.6971 231.016 37.1359C231.544 36.5746 232.164 36.294 232.908 36.294C233.653 36.294 234.211 36.559 234.692 37.0891C235.172 37.6192 235.421 38.3051 235.421 39.1158C235.421 40.3786 234.738 41.4543 233.374 42.343L235.312 45.3675C235.529 44.853 235.7 44.2294 235.824 43.5278L237.204 43.8864C236.971 45.0245 236.646 45.9755 236.258 46.7394C236.739 47.5345 237.297 48.2049 237.933 48.7661L237.049 50.0601C236.522 49.6236 235.963 49 235.39 48.1737V48.1893ZM234.537 46.9109L232.117 43.216C231.435 43.7149 230.954 44.1826 230.691 44.6347C230.427 45.0713 230.288 45.539 230.288 46.0067C230.288 46.4744 230.474 47.1759 230.846 47.7372C231.218 48.2829 231.699 48.5635 232.304 48.5635C232.908 48.5635 233.094 48.4232 233.513 48.127C233.932 47.8307 234.288 47.441 234.537 46.9421V46.9109ZM232.691 41.2984C233.249 40.8931 233.606 40.5345 233.792 40.2383C233.978 39.9421 234.056 39.5835 234.056 39.1782C234.056 38.7728 233.932 38.3363 233.699 38.0557C233.467 37.7751 233.172 37.6347 232.831 37.6347C232.49 37.6347 232.195 37.7751 231.947 38.0401C231.699 38.3051 231.575 38.6637 231.575 39.1002C231.575 39.5367 231.745 39.9733 232.102 40.4566L232.691 41.2984Z" fill="#163253"></path>
    <path d="M171.514 71.9644V58.7283H179.33V60.2873H172.956V64.3408H178.927V65.8998H172.956V70.4054H179.593V71.9644H171.529H171.514Z" fill="#163253"></path>
    <path d="M181.361 71.9644V62.3764H182.555V63.7327C182.85 63.2027 183.191 62.8129 183.61 62.5479C184.029 62.2829 184.509 62.1581 185.037 62.1581C185.564 62.1581 185.843 62.2361 186.2 62.4076C186.556 62.5791 186.836 62.7973 187.068 63.0624C187.285 63.3274 187.456 63.686 187.564 64.1069C187.673 64.5278 187.719 65.1982 187.719 66.0713V71.9644H186.401V66.118C186.401 65.4165 186.339 64.902 186.215 64.5746C186.091 64.2472 185.905 63.9978 185.657 63.8263C185.409 63.6548 185.114 63.5613 184.773 63.5613C184.137 63.5613 183.625 63.7951 183.253 64.2784C182.881 64.7617 182.679 65.5724 182.679 66.7261V71.9644H181.361Z" fill="#163253"></path>
    <path d="M189.503 72.7595L190.79 72.9933C190.852 73.5078 191.023 73.8976 191.333 74.147C191.627 74.3964 192.046 74.5212 192.589 74.5212C193.132 74.5212 193.628 74.3808 193.984 74.1002C194.326 73.8196 194.558 73.3987 194.682 72.853C194.76 72.51 194.806 71.8085 194.806 70.7172C194.512 71.1225 194.202 71.4343 193.829 71.6526C193.473 71.8552 193.069 71.9644 192.635 71.9644C191.705 71.9644 190.929 71.5746 190.309 70.7795C189.596 69.8597 189.255 68.6437 189.255 67.1002C189.255 65.5568 189.41 65.167 189.72 64.4031C190.03 63.6392 190.433 63.0624 190.945 62.7038C191.457 62.3452 192.015 62.1581 192.651 62.1581C193.287 62.1581 193.535 62.2673 193.907 62.5011C194.279 62.735 194.62 63.0624 194.915 63.5301V62.3764H196.14V70.6704C196.14 72.1515 196.016 73.196 195.783 73.8352C195.551 74.4588 195.148 74.9577 194.605 75.3319C194.062 75.6904 193.411 75.8775 192.635 75.8775C191.86 75.8775 190.836 75.5969 190.294 75.0512C189.751 74.5056 189.487 73.7417 189.503 72.7751V72.7595ZM190.588 66.9911C190.588 68.2539 190.79 69.1737 191.209 69.7506C191.627 70.3274 192.124 70.6236 192.728 70.6236C193.333 70.6236 193.845 70.343 194.264 69.7662C194.682 69.2049 194.899 68.3007 194.899 67.0535C194.899 65.8062 194.682 64.9488 194.248 64.3563C193.814 63.7639 193.287 63.4677 192.666 63.4677C192.046 63.4677 191.627 63.7639 191.209 64.3563C190.79 64.9488 190.588 65.8218 190.588 66.9755V66.9911Z" fill="#163253"></path>
    <path d="M198.156 60.5991V58.7283H199.474V60.5991H198.156ZM198.156 71.9644V62.3764H199.474V71.9644H198.156Z" fill="#163253"></path>
    <path d="M201.506 71.9644V62.3764H202.7V63.7327C202.994 63.2027 203.336 62.8129 203.754 62.5479C204.173 62.2829 204.654 62.1581 205.181 62.1581C205.708 62.1581 205.987 62.2361 206.344 62.4076C206.701 62.5791 206.98 62.7973 207.212 63.0624C207.429 63.3274 207.6 63.686 207.709 64.1069C207.817 64.5278 207.864 65.1982 207.864 66.0713V71.9644H206.546V66.118C206.546 65.4165 206.484 64.902 206.359 64.5746C206.235 64.2472 206.049 63.9978 205.801 63.8263C205.553 63.6548 205.258 63.5613 204.917 63.5613C204.281 63.5613 203.77 63.7951 203.398 64.2784C203.025 64.7617 202.824 65.5724 202.824 66.7261V71.9644H201.506Z" fill="#163253"></path>
    <path d="M215.245 68.8775L216.61 69.0802C216.377 70.1091 215.974 70.8731 215.369 71.4031C214.78 71.9176 214.036 72.1826 213.152 72.1826C212.268 72.1826 211.151 71.7617 210.453 70.9198C209.771 70.078 209.43 68.8463 209.43 67.2561C209.43 65.6659 209.771 64.3408 210.469 63.4677C211.167 62.5947 212.035 62.1581 213.09 62.1581C214.144 62.1581 214.951 62.5791 215.617 63.4365C216.3 64.294 216.625 65.5256 216.625 67.147V67.5835H210.779C210.826 68.6592 211.089 69.4699 211.523 70.0156C211.973 70.5613 212.5 70.8419 213.136 70.8419C214.129 70.8419 214.827 70.1871 215.214 68.8775H215.245ZM210.888 66.2428H215.261C215.199 65.4165 215.028 64.7929 214.734 64.3875C214.315 63.7951 213.772 63.4989 213.105 63.4989C212.438 63.4989 212.004 63.7483 211.585 64.2472C211.167 64.7461 210.934 65.4165 210.888 66.2584V66.2428Z" fill="#163253"></path>
    <path d="M223.635 68.8775L225 69.0802C224.767 70.1091 224.364 70.8731 223.759 71.4031C223.17 71.9176 222.425 72.1826 221.541 72.1826C220.657 72.1826 219.541 71.7617 218.843 70.9198C218.161 70.078 217.82 68.8463 217.82 67.2561C217.82 65.6659 218.161 64.3408 218.859 63.4677C219.556 62.5947 220.425 62.1581 221.479 62.1581C222.534 62.1581 223.34 62.5791 224.007 63.4365C224.689 64.294 225.015 65.5256 225.015 67.147V67.5835H219.169C219.215 68.6592 219.479 69.4699 219.913 70.0156C220.363 70.5613 220.89 70.8419 221.526 70.8419C222.518 70.8419 223.216 70.1871 223.604 68.8775H223.635ZM219.277 66.2428H223.65C223.588 65.4165 223.418 64.7929 223.123 64.3875C222.704 63.7951 222.162 63.4989 221.495 63.4989C220.828 63.4989 220.394 63.7483 219.975 64.2472C219.556 64.7461 219.324 65.4165 219.277 66.2584V66.2428Z" fill="#163253"></path>
    <path d="M226.674 71.9644V62.3764H227.869V63.8263C228.179 63.1559 228.458 62.7038 228.706 62.4855C228.954 62.2673 229.249 62.1581 229.559 62.1581C229.869 62.1581 230.458 62.3296 230.908 62.6882L230.458 64.2004C230.133 63.9666 229.807 63.8419 229.497 63.8419C229.187 63.8419 228.954 63.9354 228.721 64.1381C228.489 64.3408 228.318 64.6214 228.225 64.9644C228.055 65.588 227.977 66.2428 227.977 66.9443V71.9644H226.659H226.674Z" fill="#163253"></path>
    <path d="M231.699 60.5991V58.7283H233.017V60.5991H231.699ZM231.699 71.9644V62.3764H233.017V71.9644H231.699Z" fill="#163253"></path>
    <path d="M235.048 71.9644V62.3764H236.242V63.7327C236.537 63.2027 236.878 62.8129 237.297 62.5479C237.716 62.2829 238.196 62.1581 238.724 62.1581C239.251 62.1581 239.53 62.2361 239.887 62.4076C240.243 62.5791 240.523 62.7973 240.755 63.0624C240.972 63.3274 241.143 63.686 241.251 64.1069C241.36 64.5278 241.406 65.1982 241.406 66.0713V71.9644H240.088V66.118C240.088 65.4165 240.026 64.902 239.902 64.5746C239.778 64.2472 239.592 63.9978 239.344 63.8263C239.096 63.6548 238.801 63.5613 238.46 63.5613C237.824 63.5613 237.312 63.7951 236.94 64.2784C236.568 64.7617 236.366 65.5724 236.366 66.7261V71.9644H235.048Z" fill="#163253"></path>
    <path d="M243.19 72.7595L244.477 72.9933C244.539 73.5078 244.71 73.8976 245.02 74.147C245.315 74.3964 245.733 74.5212 246.276 74.5212C246.819 74.5212 247.315 74.3808 247.672 74.1002C248.013 73.8196 248.245 73.3987 248.37 72.853C248.447 72.51 248.494 71.8085 248.494 70.7172C248.199 71.1225 247.889 71.4343 247.517 71.6526C247.16 71.8552 246.757 71.9644 246.323 71.9644C245.392 71.9644 244.617 71.5746 243.996 70.7795C243.283 69.8597 242.942 68.6437 242.942 67.1002C242.942 65.5568 243.097 65.167 243.407 64.4031C243.717 63.6392 244.12 63.0624 244.632 62.7038C245.144 62.3452 245.702 62.1581 246.338 62.1581C246.974 62.1581 247.222 62.2673 247.594 62.5011C247.966 62.735 248.308 63.0624 248.602 63.5301V62.3764H249.827V70.6704C249.827 72.1515 249.703 73.196 249.471 73.8352C249.238 74.4588 248.835 74.9577 248.292 75.3319C247.749 75.6904 247.098 75.8775 246.323 75.8775C245.547 75.8775 244.524 75.5969 243.981 75.0512C243.438 74.5056 243.175 73.7417 243.19 72.7751V72.7595ZM244.276 66.9911C244.276 68.2539 244.477 69.1737 244.896 69.7506C245.315 70.3274 245.811 70.6236 246.416 70.6236C247.02 70.6236 247.532 70.343 247.951 69.7662C248.37 69.2049 248.587 68.3007 248.587 67.0535C248.587 65.8062 248.37 64.9488 247.935 64.3563C247.501 63.7639 246.974 63.4677 246.354 63.4677C245.733 63.4677 245.315 63.7639 244.896 64.3563C244.477 64.9488 244.276 65.8218 244.276 66.9755V66.9911Z" fill="#163253"></path>
  </g>
  <defs>
    <clipPath id="clip0_47_4152">
      <rect width="288.317" height="91" fill="white"></rect>
    </clipPath>
  </defs>
</svg>
